<svg id="Layer_1" data-name="Layer 1" xmlns="http://www.w3.org/2000/svg" viewBox="0 0 204.96 204.95"><defs><style>.cls-1,.cls-2{fill:#bbf5b8;}.cls-2{stroke:#bbf5b8;stroke-miterlimit:10;}</style></defs><title>logo</title><path class="cls-1" d="M200.06,4.91V200H4.91V4.91H200.06M205,0H0V205H205V0h0Z"/><path class="cls-2" d="M63.84,62.13V94.44H54.25V62.13h-9V54.3H72.86v7.82h-9Z"/><path class="cls-2" d="M124.57,59.24a20.86,20.86,0,0,1,0,30.21c-3.86,3.61-9.08,5.9-16.05,5.9-7.78,0-13.07-3-16.18-5.9a20.18,20.18,0,0,1-6.47-14.92A22,22,0,0,1,92.27,59.3c2.8-2.71,8-5.9,16.24-5.9C115,53.4,120.4,55.33,124.57,59.24Zm-25.2,6.14a12.1,12.1,0,0,0-3.67,9.09,11.78,11.78,0,0,0,3.8,9,12.44,12.44,0,0,0,8.9,3.31,12.8,12.8,0,0,0,9.21-3.43,11.83,11.83,0,0,0,3.61-9,12.44,12.44,0,0,0-3.61-9,13.56,13.56,0,0,0-9.15-3.43A13,13,0,0,0,99.37,65.38Z"/><path class="cls-2" d="M159.73,54.3V94.44h-9.58V54.3h9.58Z"/><path class="cls-2" d="M63.84,118.33v32.32H54.25V118.33h-9v-7.82H72.86v7.82h-9Z"/><path class="cls-2" d="M124.57,115.44a20.86,20.86,0,0,1,0,30.21c-3.86,3.61-9.08,5.9-16.05,5.9-7.78,0-13.07-3-16.18-5.9a20.18,20.18,0,0,1-6.47-14.92,22,22,0,0,1,6.41-15.23c2.8-2.71,8-5.9,16.24-5.9C115,109.61,120.4,111.53,124.57,115.44Zm-25.2,6.14a12.1,12.1,0,0,0-3.67,9.09,11.78,11.78,0,0,0,3.8,9,12.44,12.44,0,0,0,8.9,3.31,12.8,12.8,0,0,0,9.21-3.43,11.83,11.83,0,0,0,3.61-9,12.44,12.44,0,0,0-3.61-9,13.56,13.56,0,0,0-9.15-3.43A13,13,0,0,0,99.37,121.58Z"/><path class="cls-2" d="M159.73,110.51v40.14h-9.58V110.51h9.58Z"/></svg>